<?xml version="1.0" encoding="utf-8"?>
<!-- Generator: Adobe Illustrator 16.0.4, SVG Export Plug-In . SVG Version: 6.00 Build 0)  -->
<!DOCTYPE svg PUBLIC "-//W3C//DTD SVG 1.1//EN" "http://www.w3.org/Graphics/SVG/1.1/DTD/svg11.dtd">
<svg version="1.1" id="Layer_1" xmlns="http://www.w3.org/2000/svg" xmlns:xlink="http://www.w3.org/1999/xlink" x="0px" y="0px"
	 width="566.925px" height="118.725px" viewBox="0 0 566.925 118.725" enable-background="new 0 0 566.925 118.725"
	 xml:space="preserve">
<g>
	<path fill="#999999" d="M31.945,28.981v6.587h12.35v19.266h-12.35v61.421H8.068V54.011L0,52.693V35.568h8.068v-7.575
		C8.068,0.33,41.66,0,41.66,0l3.622,16.961C45.282,16.961,31.945,19.266,31.945,28.981z"/>
	<path fill="#999999" d="M80.107,56.481c-4.117,0-6.422,2.469-6.422,2.469v57.305H49.809V35.568H73.85v5.928
		c0,0,7.081-8.398,11.197-8.398c4.775,0,8.563,2.47,8.563,2.47L90.481,58.95C90.481,58.95,84.718,56.481,80.107,56.481z"/>
	<path fill="#999999" d="M146.563,109.174c-6.093,4.445-15.479,9.551-23.054,9.551c-18.277,0-25.522-8.893-25.522-24.536V35.568
		h23.876v58.622c0,3.952,1.646,4.94,5.27,4.94c5.269,0,14.655-6.422,14.655-6.422v-57.14h23.877v63.891
		c0,4.116,4.117,6.751,4.117,6.751l-7.575,12.515C154.797,117.901,149.527,113.456,146.563,109.174z"/>
	<path fill="#999999" d="M175.74,14.326c0-7.904,7.41-13.997,14.984-13.997c7.41,0,14.326,5.434,14.326,13.173
		c0,8.068-7.41,13.832-14.984,13.832C182.656,27.334,175.74,22.065,175.74,14.326z M178.54,35.568h23.546v80.687H178.54V35.568z"/>
	<path fill="#999999" d="M235.66,118.725c-14.82,0-19.759-11.363-19.759-22.065V54.505l-7.081-1.812V35.568h7.739V21.077h22.889
		v14.491h13.502v18.937h-13.172v38.203c0,0.988,0.329,5.104,2.634,5.763c3.623,1.317,8.068-1.153,8.068-1.153l5.104,16.302
		c0,0-7.08,2.964-9.714,3.787C242.905,118.395,239.941,118.725,235.66,118.725z"/>
	<path fill="#999999" d="M291.283,118.725c-23.053,0-36.062-21.077-36.062-42.155c0-21.572,12.679-43.472,36.556-43.472
		c8.564,0,18.772,4.117,25.03,10.044l-10.703,13.997c-3.293-2.634-9.881-4.446-14.162-4.446c-9.551,0-12.844,15.15-12.844,22.56
		c0,7.576,3.458,24.042,13.338,24.042c5.928,0,13.009-3.458,17.455-7.081l8.562,15.314
		C311.537,113.62,300.504,118.725,291.283,118.725z"/>
	<path fill="#999999" d="M379.409,118.725c-8.562,0-13.337-5.6-14.326-13.009c-2.964,8.068-11.855,13.009-20.089,13.009
		c-16.137,0-25.193-8.07-25.193-24.536c0-5.763,3.128-12.35,5.927-17.455l36.228-14.49v-3.458c0-4.446-5.105-6.587-8.893-6.587
		c-7.575,0-13.996,2.964-19.924,7.575l-8.397-13.503c7.738-7.41,19.759-13.173,30.627-13.173c15.643,0,28.815,7.245,28.815,24.37
		v42.979c0,1.482,0,4.281,1.976,4.281c0.824,0,1.647-0.329,2.305-0.659l3.624,11.198
		C388.136,117.243,383.855,118.725,379.409,118.725z M343.677,85.627c-0.823,2.47-1.482,5.598-1.482,8.233
		c0,3.458,3.129,5.762,6.422,5.762c9.55,0,13.832-8.726,13.832-17.289v-4.446L343.677,85.627z"/>
	<path fill="#999999" d="M420.854,85.791v30.464h-23.876V1.812h23.876v54.175l15.973-20.419h26.841l-28.323,34.415l29.146,35.897
		v10.375h-21.077L420.854,85.791z"/>
	<path fill="#999999" d="M487.082,78.053c-0.164,0.823-0.164,1.811-0.164,2.634c0,7.575,3.128,18.443,12.515,18.443
		c7.409,0,16.63-2.635,22.722-7.082l6.917,14.82c-7.904,6.587-20.419,12.021-30.463,12.021c-25.358,0-35.568-22.723-35.568-44.788
		c0-22.066,15.643-41.002,38.532-41.002c17.454,0,31.615,14.491,32.109,31.781c0.164,4.446,0.33,8.728,0.33,13.174H487.082z
		 M500.421,48.906c-6.753,0-11.033,8.233-11.693,13.997h22.889C511.452,56.481,507.83,48.906,500.421,48.906z"/>
</g>
<path fill="#999999" d="M537.779,105.716c0-7.905,7.244-13.832,14.983-13.832c7.246,0,14.162,5.27,14.162,13.008
	c0,7.904-7.41,13.833-14.984,13.833C544.693,118.725,537.779,113.291,537.779,105.716z"/>
</svg>
