<?xml version="1.0" standalone="no"?>
<!DOCTYPE svg PUBLIC "-//W3C//DTD SVG 20010904//EN"
 "http://www.w3.org/TR/2001/REC-SVG-20010904/DTD/svg10.dtd">
<svg version="1.0" xmlns="http://www.w3.org/2000/svg"
 width="880.000000pt" height="880.000000pt" viewBox="0 0 880.000000 880.000000"
 preserveAspectRatio="xMidYMid meet">
<metadata>
Created by potrace 1.14, written by Peter Selinger 2001-2017
</metadata>
<g transform="translate(0.000000,880.000000) scale(0.100000,-0.100000)"
fill="#000000" stroke="none">
<path d="M11 8238 c5 -18 12 -46 15 -62 2 -16 8 -34 12 -40 3 -6 8 -20 9 -30
2 -11 10 -39 18 -62 8 -24 17 -53 19 -66 14 -62 28 -112 34 -122 3 -6 7 -15 8
-21 1 -5 9 -37 18 -70 9 -33 19 -68 21 -78 2 -9 6 -21 9 -25 3 -5 7 -19 9 -33
3 -13 17 -64 32 -114 14 -49 35 -121 45 -160 11 -38 38 -133 60 -210 22 -77
42 -147 44 -155 8 -29 35 -125 47 -165 6 -22 11 -42 11 -45 0 -3 5 -16 10 -30
5 -14 11 -32 13 -40 3 -15 17 -64 56 -200 11 -41 29 -105 39 -141 9 -37 20
-71 23 -76 3 -5 8 -20 11 -34 2 -13 19 -73 36 -134 18 -60 36 -123 40 -140 5
-16 13 -45 19 -63 5 -18 11 -36 12 -40 1 -4 3 -11 4 -17 2 -5 12 -44 24 -85
12 -41 23 -82 25 -90 2 -8 10 -35 17 -60 7 -25 13 -49 15 -55 1 -5 32 -114 68
-241 37 -127 68 -241 71 -253 2 -11 6 -25 9 -29 2 -4 14 -41 25 -82 10 -41 30
-113 44 -160 13 -47 28 -98 32 -115 5 -16 9 -34 11 -40 2 -5 10 -35 19 -65 28
-93 33 -112 54 -194 12 -43 28 -102 37 -130 8 -28 17 -62 20 -76 2 -14 9 -36
14 -50 5 -14 15 -45 21 -70 15 -55 18 -67 22 -82 2 -7 12 -40 22 -73 10 -33
19 -64 20 -70 2 -5 19 -68 40 -140 20 -71 43 -152 50 -180 18 -70 66 -237 73
-255 3 -8 6 -19 8 -25 18 -72 47 -174 54 -190 5 -11 11 -31 13 -45 3 -14 15
-59 27 -100 12 -41 23 -83 25 -93 2 -10 15 -55 29 -100 29 -96 117 -405 121
-427 2 -8 8 -28 14 -43 6 -15 10 -31 9 -35 -1 -4 2 -14 5 -22 3 -8 38 -127 77
-265 81 -289 106 -377 121 -422 5 -18 12 -40 13 -50 2 -10 12 -45 22 -78 10
-33 19 -66 20 -73 3 -14 33 -119 42 -142 3 -8 6 -22 8 -30 1 -8 7 -31 13 -50
11 -34 44 -150 46 -160 1 -3 7 -25 14 -50 7 -25 14 -49 15 -55 2 -9 31 -110
40 -140 2 -5 4 -13 5 -17 2 -4 10 -36 20 -70 l18 -63 1103 0 c1049 0 1103 1
1106 18 1 10 9 41 18 70 17 55 48 165 52 182 2 6 10 35 19 65 9 30 17 62 19
70 2 8 11 41 20 72 10 32 17 61 18 65 0 5 4 14 10 21 6 6 8 12 5 12 -3 0 -1
15 4 33 11 33 77 265 109 377 10 36 23 80 29 98 5 18 9 33 9 35 0 3 23 88 30
107 3 8 7 24 9 35 6 27 9 37 16 55 3 8 15 51 27 95 12 44 25 87 28 95 3 8 6
21 8 29 1 7 30 110 64 229 35 119 63 221 64 227 1 5 5 16 9 23 5 6 6 12 3 12
-3 0 -1 12 5 28 6 15 12 34 14 42 2 8 12 47 23 85 53 183 144 505 147 515 0 3
6 21 13 40 6 19 14 50 17 69 3 19 9 39 13 45 3 6 7 16 8 21 3 15 165 588 171
605 3 8 8 24 10 35 7 29 8 34 27 99 10 32 20 66 21 75 2 9 4 16 5 16 1 0 3 7
5 15 26 99 43 151 47 144 3 -5 9 -25 14 -44 9 -43 9 -42 29 -110 9 -30 18 -63
20 -72 2 -9 9 -26 15 -37 6 -12 9 -21 6 -21 -3 0 0 -15 6 -32 5 -18 11 -40 13
-48 1 -8 5 -22 8 -30 7 -18 31 -101 33 -115 0 -5 4 -17 7 -25 8 -20 78 -261
81 -280 1 -8 5 -22 8 -30 13 -33 149 -526 148 -537 0 -7 4 -13 8 -13 4 0 8 -8
9 -17 1 -19 2 -20 22 -93 7 -25 15 -56 18 -70 2 -13 9 -30 15 -37 6 -7 8 -13
5 -13 -3 0 -2 -12 3 -27 18 -59 111 -383 115 -406 2 -10 9 -32 15 -50 9 -28
41 -140 46 -159 1 -5 3 -11 4 -15 1 -5 3 -12 5 -18 1 -5 3 -12 4 -15 2 -3 4
-12 6 -20 2 -8 42 -150 90 -315 47 -165 88 -307 90 -315 2 -8 13 -49 25 -90
11 -41 23 -82 25 -90 14 -52 46 -163 60 -210 9 -30 18 -62 19 -70 2 -8 6 -22
8 -30 11 -29 60 -202 64 -224 2 -11 8 -32 13 -46 5 -14 15 -46 21 -72 7 -27
15 -48 19 -48 5 0 60 177 67 215 1 6 14 51 28 100 15 50 29 97 31 105 1 8 15
56 30 105 14 50 28 98 30 109 3 10 12 44 21 75 20 63 21 67 28 99 10 39 15 56
31 112 17 56 44 153 51 180 2 8 22 76 44 150 22 74 42 144 44 155 3 11 12 45
22 75 9 30 17 60 18 65 3 12 31 111 52 182 9 29 17 58 18 65 2 7 9 33 16 58 7
25 14 50 16 55 3 14 85 307 90 323 2 7 4 14 4 17 0 3 6 21 14 40 8 19 12 35 9
35 -3 0 0 7 7 15 7 8 10 15 7 15 -5 0 24 109 57 215 9 28 16 51 16 53 0 1 0 3
1 5 0 1 2 9 4 17 2 15 13 50 56 195 11 39 22 79 25 90 2 11 15 58 29 105 34
116 66 230 70 249 2 9 16 57 31 106 14 50 28 97 29 105 2 8 4 15 5 15 1 0 3 7
5 15 4 19 27 100 58 208 14 45 22 82 20 82 -3 0 -1 6 5 13 6 6 11 17 11 22 2
17 21 87 43 160 12 39 23 77 24 85 1 8 10 40 19 70 9 30 18 62 20 70 2 8 4 17
6 20 1 3 3 10 4 15 1 6 5 17 8 25 10 26 93 326 103 369 3 14 8 29 11 34 3 5
16 48 29 96 12 47 34 127 49 176 14 50 27 97 29 105 2 8 16 56 30 105 15 50
28 97 30 106 5 20 40 143 66 229 10 36 38 133 61 215 22 83 57 204 76 270 19
66 36 127 38 135 2 8 16 56 30 105 24 81 53 184 59 210 2 6 5 17 8 25 3 8 52
179 108 380 56 201 108 385 116 410 7 25 22 77 33 115 11 39 30 104 42 145 12
41 23 80 24 85 1 12 23 89 32 111 4 12 -143 14 -1095 14 l-1101 0 -20 -67
c-25 -84 -61 -210 -66 -232 -2 -9 -16 -56 -30 -106 -14 -49 -28 -98 -30 -108
-2 -9 -6 -21 -9 -25 -3 -5 -7 -19 -10 -33 -3 -13 -19 -73 -37 -134 -17 -60
-32 -117 -34 -125 -2 -8 -4 -16 -5 -17 -2 -2 -3 -6 -4 -10 -2 -5 -8 -28 -15
-53 -7 -25 -14 -49 -15 -55 -2 -5 -12 -44 -24 -85 -44 -149 -74 -252 -77 -269
-2 -9 -11 -41 -20 -71 -9 -30 -18 -62 -20 -70 -2 -8 -4 -15 -5 -15 -1 0 -3 -7
-5 -15 -6 -30 -46 -175 -52 -190 -3 -8 -7 -19 -8 -25 -9 -37 -79 -283 -107
-375 -11 -36 -21 -74 -23 -85 -1 -11 -8 -33 -14 -48 -6 -16 -9 -33 -5 -38 3
-5 1 -9 -4 -9 -5 0 -9 -6 -10 -12 0 -7 -8 -38 -17 -68 -21 -70 -46 -161 -50
-180 -2 -8 -8 -27 -14 -43 -6 -15 -13 -38 -15 -50 -2 -13 -13 -54 -25 -91 -12
-37 -23 -78 -25 -90 -3 -11 -30 -109 -61 -216 -31 -107 -58 -202 -60 -210 -3
-8 -9 -31 -14 -50 -5 -19 -21 -75 -36 -125 -14 -49 -28 -99 -30 -111 -3 -11
-13 -47 -23 -80 -11 -32 -32 -107 -48 -166 -16 -60 -32 -108 -35 -108 -4 0 -9
10 -12 23 -3 12 -13 49 -22 82 -9 33 -18 67 -20 75 -2 8 -8 29 -15 45 -6 17
-11 30 -10 30 1 0 -4 20 -11 45 -7 25 -13 50 -15 55 -1 6 -21 75 -44 155 -23
80 -48 169 -56 199 -8 29 -17 58 -20 63 -3 5 -7 19 -9 31 -2 12 -13 54 -24 92
-12 39 -23 77 -25 85 -2 8 -12 41 -21 74 -9 32 -18 64 -19 70 -1 6 -5 17 -9
24 -5 6 -6 12 -4 12 3 0 -2 21 -10 48 -8 26 -23 79 -34 117 -11 39 -22 77 -26
85 -3 8 -6 18 -5 22 1 4 -5 25 -13 47 -8 23 -14 42 -13 44 1 1 -6 27 -15 57
-34 111 -109 375 -111 390 -2 8 -11 42 -21 75 -10 33 -20 65 -21 70 -1 6 -12
43 -24 84 -12 41 -23 81 -26 90 -4 19 -27 99 -83 296 -78 277 -113 399 -117
414 -2 9 -13 48 -24 86 -12 39 -23 75 -24 80 -1 6 -8 30 -15 55 -8 25 -15 52
-16 60 -2 8 -4 15 -5 15 -1 0 -3 7 -5 15 -2 8 -11 40 -20 70 -9 30 -18 64 -21
75 -2 11 -22 81 -45 155 -22 74 -41 142 -43 150 -4 25 -18 74 -24 84 -5 8 -54
-147 -66 -209 -3 -11 -5 -20 -6 -20 -1 0 -3 -7 -5 -15 -8 -32 -47 -169 -67
-235 -12 -38 -21 -74 -20 -78 1 -4 -5 -21 -14 -38 -11 -23 -12 -29 -2 -23 11
6 11 5 0 -8 -7 -8 -24 -58 -38 -109 -29 -110 -26 -99 -59 -214 -25 -84 -52
-180 -61 -215 -4 -15 -7 -27 -69 -240 -20 -69 -38 -132 -40 -140 -2 -8 -13
-49 -25 -90 -11 -41 -23 -82 -25 -90 -2 -8 -29 -103 -60 -210 -31 -107 -58
-205 -61 -218 -2 -13 -11 -42 -18 -65 -8 -23 -26 -85 -41 -137 -34 -122 -63
-223 -79 -280 -12 -40 -20 -67 -33 -120 -4 -17 -4 -16 -27 -94 -10 -32 -20
-66 -21 -75 -2 -9 -4 -16 -5 -16 -1 0 -3 -7 -5 -15 -1 -8 -29 -104 -60 -214
-31 -109 -58 -204 -59 -210 -2 -6 -9 -31 -16 -56 -7 -25 -14 -49 -15 -55 -2
-5 -10 -35 -19 -65 -17 -55 -55 -192 -61 -220 -6 -26 -25 -73 -29 -69 -2 2 -6
18 -9 34 -3 17 -12 51 -21 76 -8 25 -17 54 -19 65 -2 10 -7 26 -10 34 -6 14
-35 120 -51 185 -1 6 -7 26 -14 45 -6 19 -14 46 -16 60 -3 14 -39 142 -81 285
-41 143 -77 270 -79 282 -3 12 -9 31 -16 42 -6 12 -8 21 -6 21 3 0 1 12 -5 28
-6 15 -12 34 -14 42 -2 8 -9 35 -16 60 -7 25 -14 50 -15 55 -2 6 -10 35 -19
65 -18 63 -18 62 -44 155 -11 39 -24 85 -30 103 -5 18 -11 36 -12 40 -9 36
-36 130 -58 207 -11 39 -25 90 -32 115 -16 57 -15 55 -34 120 -9 30 -18 62
-20 70 -2 8 -20 71 -40 140 -20 69 -37 132 -39 140 -2 8 -21 71 -41 140 -20
69 -38 136 -41 149 -3 14 -7 28 -10 33 -3 4 -7 18 -9 29 -3 12 -12 47 -21 78
-9 31 -18 63 -19 71 -2 8 -13 46 -25 84 -12 38 -23 76 -25 85 -2 9 -27 97 -55
196 -29 99 -54 189 -57 200 -3 11 -17 58 -30 105 -14 47 -27 94 -30 105 -3 11
-11 26 -17 34 -8 11 -8 13 0 8 8 -5 8 5 -1 31 l-13 37 -1100 3 -1101 2 10 -32z"/>
</g>
</svg>
